<svg xmlns="http://www.w3.org/2000/svg" xmlns:xlink="http://www.w3.org/1999/xlink" version="1.1" id="Layer_1" x="0px" y="0px" viewBox="0 0 537.9 640" style="enable-background:new 0 0 537.9 640;" xml:space="preserve" width="537.9"  height="640" >
<style type="text/css">
	.st0{fill:#D9D9D9;filter:url(#Adobe_OpacityMaskFilter);}
	.st1{mask:url(#mask0_1_60_00000034085935979884497070000011190030449277984434_);}
	.st2{opacity:0.57;fill:#441ABB;}
	.st3{fill:#441ABB;}
	.st4{fill:#4D21C9;}
	.st5{fill:none;stroke:#9E83FF;stroke-width:10.2697;}
	.st6{fill:#6837F1;}
	.st7{fill:#FFFFFF;}
	.st8{fill:#30129E;}
	.st9{fill:#704BF9;}
	.st10{fill:#4322BC;}
</style>
  <defs>
	<filter id="Adobe_OpacityMaskFilter" filterUnits="userSpaceOnUse" x="80.2" y="132.1" width="375.2" height="375.2">
		<feColorMatrix type="matrix" values="1 0 0 0 0  0 1 0 0 0  0 0 1 0 0  0 0 0 1 0"/>
	</filter>
</defs>
  <mask maskUnits="userSpaceOnUse" x="80.2" y="132.1" width="375.2" height="375.2" id="mask0_1_60_00000034085935979884497070000011190030449277984434_">
	<path class="st0" d="M267.8,52.3l224,133.7v267.4l-224,133.7l-224-133.7V186L267.8,52.3z"/>
</mask>
  <g class="st1">
	<circle class="st2" cx="267.8" cy="319.7" r="187.6"/>
</g>
  <circle class="st3" cx="267.8" cy="319.7" r="147.3"/>
  <circle class="st4" cx="267.8" cy="319.7" r="110.8"/>
  <path class="st5" d="M267.5,586.7l225.8-400.9L267.5,52.8L41.7,185.7L267.5,586.7z"/>
  <path class="st5" d="M40.1,454.4l225.8,132.9l225.8-132.9L265.9,53.5"/>
  <path class="st5" d="M267.5,52.8L41.7,453.7l225.8,132.9l225.8-132.9"/>
  <path class="st5" d="M41.2,185.6l452.1,267.1V185.6L41.2,458.9V185.6z"/>
  <circle class="st6" cx="268" cy="319.8" r="64.9"/>
  <circle class="st6" cx="43" cy="185.9" r="44.9"/>
  <circle class="st6" cx="43" cy="452.6" r="44.9"/>
  <circle class="st6" cx="268" cy="52.5" r="44.9"/>
  <circle class="st6" cx="268" cy="587.2" r="44.9"/>
  <circle class="st6" cx="493" cy="185.9" r="44.9"/>
  <path class="st7" d="M284.4,306.9l20-11.2l0,21.7l-15.5,8.6c-10.6,5.9-16.7,13.6-19.2,20.5c-2.5,6.9-2.1,10.8-2.2,12.5  c0-10.9,0-14.2,0-23.4c0-2.3,0.3-4.8,0.6-6C268.2,329.8,270.8,314.5,284.4,306.9z"/>
  <path class="st7" d="M267.6,336.2l0,22.9l-19-10.5l0-17.8c0-12.1-3.8-21.2-8.6-26.7c-4.8-5.5-8.4-7.2-9.9-8.1  c9.5,5.1,12,6.4,20,10.8c2,1.1,4.6,3.1,5.5,4C255.7,310.8,267.6,320.7,267.6,336.2z"/>
  <path class="st7" d="M284.3,306.9c8.1-4.4,14-7.8,20.1-11.2c-1.5,0.8-4.8,3-12.1,4.3c-7.2,1.2-17.4,1-27.9-5.4l-15.4-9.3l-18.9,10.7  l20.7,11.1C256,310.3,268.8,315.4,284.3,306.9z"/>
  <path class="st8" d="M494.7,412.1l45.6,26.3v52.7l-45.6,26.3l-45.6-26.3v-52.7L494.7,412.1z"/>
  <polygon class="st9" points="449.1,438.5 494.7,412.2 540.7,438.7 495,465 "/>
  <path class="st10" d="M449.1,438.5L495,465l-0.3,52.6l-45.6-26.4V438.5z"/>
  <path class="st8" d="M42.8,399.8l45.6,26.3v52.7l-45.6,26.3l-45.6-26.3v-52.7L42.8,399.8z"/>
  <polygon class="st9" points="-2.8,426.2 42.9,399.9 88.8,426.4 43.1,452.7 "/>
  <path class="st10" d="M-2.8,426.2l45.9,26.5l-0.3,52.6l-45.6-26.4L-2.8,426.2z"/>
  <path class="st8" d="M268.7,534.4l45.6,26.3v52.7l-45.6,26.3l-45.6-26.3v-52.7L268.7,534.4z"/>
  <polygon class="st9" points="223.1,560.8 268.7,534.4 314.6,561 269,587.3 "/>
  <path class="st10" d="M223.1,560.8l45.9,26.5l-0.3,52.6l-45.6-26.4V560.8z"/>
  <path class="st8" d="M268.8,0l45.6,26.3V79l-45.6,26.3L223.2,79V26.3L268.8,0z"/>
  <polygon class="st9" points="223.2,26.4 268.8,0 314.8,26.6 269.1,52.9 "/>
  <path class="st10" d="M223.2,26.4l45.9,26.5l-0.3,52.6l-45.6-26.4V26.4z"/>
  <path class="st8" d="M43.7,132.7l45.6,26.3v52.7l-45.6,26.3l-45.6-26.3v-52.7L43.7,132.7z"/>
  <polygon class="st9" points="-1.9,159.1 43.7,132.8 89.6,159.3 44,185.6 "/>
  <path class="st10" d="M-1.9,159.1L44,185.6l-0.3,52.6l-45.6-26.4L-1.9,159.1z"/>
  <path class="st8" d="M491.7,132.7l45.6,26.3v52.7l-45.6,26.3l-45.6-26.3v-52.7L491.7,132.7z"/>
  <polygon class="st9" points="446.1,159.1 491.7,132.8 537.6,159.3 492,185.6 "/>
  <path class="st10" d="M446.1,159.1l45.9,26.5l-0.3,52.6l-45.6-26.4V159.1z"/>
</svg>