<svg xmlns:xlink="http://www.w3.org/1999/xlink" xmlns="http://www.w3.org/2000/svg" width="640" height="640" viewBox="0 0 640 640" fill="none">
  <g clip-path="url(#clip0_407_4353)">
    <path d="M323.001 27L414.717 170.163C504.458 310.242 473.323 482.449 337.981 594.589L323.001 607.001L308.021 594.589C172.679 482.449 141.544 310.242 231.284 170.163L323.001 27Z" fill="#441ABB"/>
    <path fill-rule="evenodd" clip-rule="evenodd" d="M323 606.392L323.333 606.668L338.313 594.256C473.656 482.115 504.79 309.909 415.05 169.83L323.333 26.6666L323 27.1868V606.392Z" fill="#4D21C9"/>
    <path d="M323.461 184L383.154 277.176C452.962 386.143 428.743 520.101 323.461 607.335C218.179 520.101 193.959 386.143 263.768 277.176L323.461 184Z" fill="#6837F1"/>
    <path fill-rule="evenodd" clip-rule="evenodd" d="M323 606.952C323.153 607.08 323.307 607.207 323.461 607.335C428.743 520.101 452.962 386.143 383.154 277.176L323.461 184L323 184.719V606.952Z" fill="#7649F3"/>
    <path d="M323.333 302.446L366.447 369.743C416.867 448.445 399.374 545.197 323.333 608.202C247.293 545.197 229.8 448.445 280.22 369.743L323.333 302.446Z" fill="black"/>
    <path fill-rule="evenodd" clip-rule="evenodd" d="M323 607.925C323.111 608.017 323.222 608.11 323.333 608.202C399.374 545.197 416.866 448.445 366.447 369.743L323.333 302.446L323 302.966V607.925Z" fill="#1A1A1A"/>
    <path d="M322.518 468L340.164 488.907C360.8 513.357 353.64 543.414 322.518 562.987C291.395 543.414 284.235 513.357 304.872 488.907L322.518 468Z" fill="#F5F5F5"/>
    <path fill-rule="evenodd" clip-rule="evenodd" d="M322.381 562.901C322.426 562.93 322.472 562.959 322.517 562.987C353.64 543.414 360.8 513.357 340.163 488.907L322.517 468L322.381 468.162V562.901Z" fill="#DDDDDD"/>
  </g>
  <defs>
    <clipPath id="clip0_407_4353">
      <rect width="640" height="640" fill="white"/>
    </clipPath>
  </defs>
</svg>