<svg xmlns:xlink="http://www.w3.org/1999/xlink" xmlns="http://www.w3.org/2000/svg" width="640" height="640" viewBox="0 0 640 640" fill="none">
  <circle cx="319.5" cy="319.5" r="255.5" fill="#441ABB"/>
  <circle cx="319" cy="320" r="192" fill="#6837F1"/>
  <circle cx="319.5" cy="319.5" r="129.5" fill="#441ABB"/>
  <ellipse cx="319.5" cy="320" rx="62.5" ry="62" fill="#6837F1"/>
  <path d="M319.5 64C367.984 64 415.467 77.7952 456.404 103.774C497.34 129.753 530.04 166.844 550.683 210.713L319.5 319.5V64Z" fill="#DDDDDD"/>
  <path d="M319.5 128C355.839 128 391.429 138.34 422.111 157.811C452.793 177.283 477.302 205.082 492.774 237.963L319.5 319.5V128Z" fill="white"/>
  <path d="M319.5 190C352.837 190 384.889 202.856 408.986 225.892L319.5 319.5V190Z" fill="#1A1A1A"/>
  <path d="M319.5 190C344.074 190 368.141 196.992 388.89 210.16C409.638 223.327 426.212 242.126 436.675 264.362L319.5 319.5V190Z" fill="#DDDDDD"/>
  <path d="M320 258C331.765 258 343.288 261.321 353.221 267.574C363.155 273.827 371.09 282.755 376.099 293.315L320 319.5V258Z" fill="white"/>
  <path d="M550.704 210.758C556.476 223.029 561.261 235.74 565.015 248.77L319.5 319.5L550.704 210.758Z" fill="#1A1A1A"/>
  <path d="M189 285L214.981 330H163.019L189 285Z" fill="#1A1A1A"/>
  <path d="M382 175L417.507 236.5H346.493L382 175Z" fill="#6837F1"/>
  <path d="M498 325L522.249 367.75H473.751L498 325Z" fill="#1A1A1A"/>
  <path d="M285 482L309.249 524.75H260.751L285 482Z" fill="#1A1A1A"/>
</svg>