<svg xmlns:xlink="http://www.w3.org/1999/xlink" xmlns="http://www.w3.org/2000/svg" width="470" height="547" viewBox="0 0 470 547" fill="none">
  <circle cx="238.853" cy="331.571" r="214.762" fill="black"/>
  <path fill-rule="evenodd" clip-rule="evenodd" d="M235 546.299C236.282 546.322 237.566 546.333 238.853 546.333C357.463 546.333 453.615 450.181 453.615 331.571C453.615 212.962 357.463 116.809 238.853 116.809C237.566 116.809 236.282 116.821 235 116.843V546.299Z" fill="#1A1A1A"/>
  <circle cx="233.695" cy="99.695" r="99.695" fill="black"/>
  <path fill-rule="evenodd" clip-rule="evenodd" d="M233.735 199.673C233.83 199.674 233.924 199.674 234.019 199.674C289.079 199.674 333.714 155.039 333.714 99.9787C333.714 44.9187 289.079 0.283691 234.019 0.283691C233.924 0.283691 233.83 0.283823 233.735 0.284087V199.673Z" fill="#1A1A1A"/>
  <circle cx="238.769" cy="320.769" r="47.7689" fill="#DDDDDD"/>
  <path fill-rule="evenodd" clip-rule="evenodd" d="M238.789 368.674C238.834 368.674 238.879 368.674 238.925 368.674C265.307 368.674 286.693 347.287 286.693 320.905C286.693 294.523 265.307 273.136 238.925 273.136C238.879 273.136 238.834 273.136 238.789 273.136V368.674Z" fill="#F5F5F5"/>
  <path d="M0.666504 351.095C0.666504 221.703 105.56 116.81 234.952 116.81V265.191C234.952 394.583 130.059 499.476 0.666504 499.476V351.095Z" fill="#441ABB"/>
  <path d="M469.241 351.095C469.241 221.703 364.347 116.809 234.955 116.809V265.19C234.955 394.583 339.848 499.476 469.241 499.476V351.095Z" fill="#4D21C9"/>
</svg>